PathFileType	4	(X/Y/Z)	C:\Users\Basilio\Documents\Thesis Gigler\squatting_fais\c3dfiles\041\SLS_pre_back5\markers_experimental.trc
DataRate	CameraRate	NumFrames	NumMarkers	Units	OrigDataRate	OrigDataStartFrame	OrigNumFrames
200.000000	200.000000	4	64	mm	200.000000	0	1353
Frame#	Time	FHD			LBHD			RBHD			C7			T10			CLAV			LSHO			LUUPA			LMUPA			LDUPA			LLEP			LMEP			LRAD			LUL			LRFIN			RSHO			RUPA1			RMUPA			RDUPA			RLEP			RMEP			RRAD			RUL			RUFIN			LASI			RASI			USACR			LSACR			RSACR			LTHI1			LTHI2			LTHI3			LTHI4			LLFC			LMFC			LTIB1			LTIB2			LTIB3			LTIB4			LLMAL			LMMAL			LHEE			LMT1			LMT2			LMT5			RTHI			RTHI2			RTHI3			RTHI4			RLFC			RMFC			RTIB1			RTIB2			RTIB3			RTIB4			RLMAL			RMMAL			RHEE			RMT1			RMT2			RMT5			*61			*62			*63			
		X1	Y1	Z1	X2	Y2	Z2	X3	Y3	Z3	X4	Y4	Z4	X5	Y5	Z5	X6	Y6	Z6	X7	Y7	Z7	X8	Y8	Z8	X9	Y9	Z9	X10	Y10	Z10	X11	Y11	Z11	X12	Y12	Z12	X13	Y13	Z13	X14	Y14	Z14	X15	Y15	Z15	X16	Y16	Z16	X17	Y17	Z17	X18	Y18	Z18	X19	Y19	Z19	X20	Y20	Z20	X21	Y21	Z21	X22	Y22	Z22	X23	Y23	Z23	X24	Y24	Z24	X25	Y25	Z25	X26	Y26	Z26	X27	Y27	Z27	X28	Y28	Z28	X29	Y29	Z29	X30	Y30	Z30	X31	Y31	Z31	X32	Y32	Z32	X33	Y33	Z33	X34	Y34	Z34	X35	Y35	Z35	X36	Y36	Z36	X37	Y37	Z37	X38	Y38	Z38	X39	Y39	Z39	X40	Y40	Z40	X41	Y41	Z41	X42	Y42	Z42	X43	Y43	Z43	X44	Y44	Z44	X45	Y45	Z45	X46	Y46	Z46	X47	Y47	Z47	X48	Y48	Z48	X49	Y49	Z49	X50	Y50	Z50	X51	Y51	Z51	X52	Y52	Z52	X53	Y53	Z53	X54	Y54	Z54	X55	Y55	Z55	X56	Y56	Z56	X57	Y57	Z57	X58	Y58	Z58	X59	Y59	Z59	X60	Y60	Z60	X61	Y61	Z61	X62	Y62	Z62	X63	Y63	Z63	X64	Y64	Z64	

1	0	-213.4280242919922	1779.176879882813	-1042.367309570313	-389.9967041015626	1698.631958007813	-1105.915405273438	-360.3979797363282	1703.833129882813	-955.622497558594	-419.1769104003907	1556.4228515625	-1041.752197265625	-438.1358337402345	1238.637939453125	-1025.938232421875	-260.9358215332032	1493.974609375	-1052.6728515625	-351.7860717773438	1537.934204101563	-1221.794189453125	-384.3672180175782	1346.468383789063	-1308.03076171875	-346.4032897949219	1316.35400390625	-1303.554931640625	-390.5134887695314	1279.241943359375	-1325.47265625	-392.2225341796876	1230.155151367188	-1331.392211914063	-398.946258544922	1193.06884765625	-1252.040405273438	-229.3578491210938	1001.11328125	-1319.96435546875	-291.3673095703126	986.6167602539065	-1360.07568359375	-190.3646087646485	944.1906738281252	-1355.878662109375	-313.7333068847657	1541.311767578125	-875.4428710937502	-373.3214416503907	1335.616333007813	-776.4094238281252	-324.6996459960938	1322.072998046875	-779.0827636718752	-349.8135681152344	1270.658813476563	-762.7151489257814	-343.5368652343751	1225.396728515625	-755.9908447265626	-371.2699279785157	1200.128295898438	-838.9606933593752	-198.3310089111329	1009.358276367188	-818.2298583984377	-253.9536132812501	983.938171386719	-771.202331542969	-149.7774505615235	952.9019165039065	-796.6021118164065	-257.7729492187501	1057.246337890625	-1139.341796875	-260.1967773437501	1054.03271484375	-911.7995605468752	-439.4915771484376	1126.196411132813	-1025.81201171875	-453.9609375000001	1099.881103515625	-1052.79345703125	-459.947723388672	1100.22705078125	-999.486267089844	-362.7155761718751	846.463317871094	-1201.15478515625	-323.8663635253907	771.0889892578127	-1191.550170898438	-276.5079650878907	777.0310668945315	-1181.678100585938	-349.3056945800782	717.5283203125001	-1181.786865234375	-326.2904968261719	537.9196777343751	-1158.829223632813	-327.4307556152344	522.6552734375001	-1038.15283203125	-303.4859313964844	347.1288757324219	-1093.802856445313	-346.8379821777344	302.0048522949219	-1159.248657226563	-311.0560607910157	298.9421386718751	-1129.594482421875	-317.7311096191407	222.9401092529297	-1094.703247070313	-374.3398437500001	129.2198181152344	-1134.189208984375	-342.7028808593751	136.71240234375	-1050.312744140625	-442.0938110351564	112.5886459350586	-1096.945434570313	-238.6956024169922	64.2385711669922	-1051.349853515625	-227.018539428711	57.25964736938478	-1095.188598632813	-269.6585388183594	40.87629318237305	-1152.667846679688	-354.9957275390626	789.5008544921877	-828.109802246094	-309.4855651855469	743.5433349609376	-814.8629150390627	-276.8907165527344	750.6662597656251	-814.1942138671877	-320.6157531738282	659.7940673828126	-825.9233398437502	-309.7775573730469	545.3633422851564	-816.6590576171877	-269.1089782714844	516.2721557617189	-922.9854125976565	-330.1830139160157	377.3319396972657	-817.8103637695315	-435.233612060547	336.4209899902344	-823.5825195312502	-393.8462829589845	317.5928039550782	-814.7501220703127	-385.1853332519532	263.2972412109376	-839.9637451171877	-483.4693603515626	175.7609558105469	-840.912536621094	-434.487518310547	180.7968139648438	-910.719421386719	-540.1436157226564	156.6884918212891	-905.6668701171877	-337.7993469238282	81.96762847900392	-871.8284912109377	-345.1152954101563	83.76993560791017	-820.346618652344	-401.625701904297	81.04717254638673	-781.850769042969	-4216.738769531251	853.0296630859377	-3944.834472656251	nan	nan	nan	nan	nan	nan	
2	0.005	-213.1709289550782	1779.041137695313	-1043.231567382813	-389.708465576172	1698.570678710938	-1106.918090820313	-360.0992736816407	1703.765991210938	-956.6534423828127	-418.8351440429689	1556.395141601563	-1042.479614257813	-437.8674926757814	1238.590087890625	-1026.694702148438	-260.3890380859376	1493.899169921875	-1053.287353515625	-351.3526306152344	1537.792358398438	-1222.492797851563	-383.7784118652344	1346.535400390625	-1309.089111328125	-345.8800964355469	1316.469116210938	-1304.661987304688	-389.7743225097657	1279.27490234375	-1326.689208984375	-391.465301513672	1230.257568359375	-1332.564453125	-398.1322326660157	1192.986572265625	-1253.489868164063	-229.1534423828126	1001.029663085938	-1321.96826171875	-291.0935668945313	986.724792480469	-1362.265747070313	-190.0161743164063	944.2285766601565	-1358.343017578125	-313.4586486816407	1541.358520507813	-876.3115234375002	-373.0663146972657	1335.669067382813	-777.1710205078127	-324.5140075683594	1322.1142578125	-779.775085449219	-349.6079711914063	1270.6630859375	-763.5119628906251	-343.5739746093751	1225.433959960938	-756.7269897460939	-371.0980224609376	1200.220458984375	-839.6932373046877	-198.1326446533204	1009.356018066406	-818.877380371094	-253.7916412353516	983.972351074219	-772.0303955078127	-149.7222442626953	952.891784667969	-797.0882568359377	-257.6578674316407	1057.132934570313	-1139.84521484375	-260.0817260742188	1053.914428710938	-912.354675292969	-439.3491821289064	1126.181640625	-1026.41357421875	-453.9121093750001	1099.906616210938	-1053.37841796875	-459.8537597656251	1100.158935546875	-1000.103942871094	-362.5079040527344	846.3657226562502	-1201.57421875	-323.6851501464844	771.022155761719	-1191.857177734375	-276.3266601562501	776.943298339844	-1182.013061523438	-349.1172790527344	717.4536132812501	-1182.184326171875	-326.1062011718751	537.8416748046876	-1159.125	-327.2184753417969	522.6341552734376	-1038.556030273438	-303.3753356933594	347.0055236816407	-1094.029052734375	-346.7717895507813	302.5042724609376	-1159.295532226563	-310.8292236328126	298.8106384277344	-1129.717651367188	-317.7076721191407	222.8732910156251	-1094.77978515625	-374.3500061035157	129.1915588378907	-1134.205200195313	-342.6617431640626	136.696273803711	-1050.309448242188	-442.1037597656251	112.5707397460938	-1097.000732421875	-238.6781921386719	64.2207717895508	-1051.386596679688	-227.018539428711	57.25964736938478	-1095.188598632813	-269.6311950683594	40.85523223876954	-1152.679077148438	-354.8605041503907	789.4566650390627	-828.5943603515627	-309.0688171386719	743.5377807617189	-815.3684692382815	-276.6189880371094	750.7258911132814	-814.6470336914065	-319.7084960937501	659.6813964843751	-827.0235595703127	-309.5494689941407	545.4392089843751	-816.9202270507815	-268.8197326660157	516.2468261718751	-923.2099609375002	-329.8177795410157	377.4739379882813	-817.963073730469	-435.0550537109376	336.5934448242188	-823.624450683594	-393.6125488281251	317.6782531738282	-814.8081665039065	-384.9636840820314	263.4056091308594	-840.003845214844	-483.3255615234376	175.9015045166016	-840.8482055664065	-434.4059448242189	180.9473571777344	-910.6614990234377	-540.0889892578126	156.9156188964844	-905.5040283203127	-337.7903137207032	81.9839324951172	-871.7955322265627	-345.0810241699219	83.71523284912111	-820.3151855468752	-401.6455688476564	81.08086395263673	-781.8212890625002	-4216.826171875001	852.9656372070315	-3944.814941406251	nan	nan	nan	nan	nan	nan	
3	0.01	-212.8609924316407	1778.939208984375	-1044.039428710938	-389.5809326171876	1698.532836914063	-1107.778198242188	-359.9208984375001	1703.77783203125	-957.550476074219	-418.5474853515626	1556.382568359375	-1043.377807617188	-437.6343078613282	1238.585327148438	-1027.36669921875	-260.4673156738282	1493.628784179688	-1053.961181640625	-351.0581359863282	1537.713012695313	-1223.268310546875	-384.098846435547	1346.614013671875	-1309.629516601563	-345.1300659179688	1316.577514648438	-1305.869750976563	-389.1950073242189	1279.415161132813	-1327.900756835938	-390.7156677246095	1230.4208984375	-1333.9345703125	-397.196258544922	1192.899047851563	-1254.762451171875	-228.7445983886719	1001.3017578125	-1324.455932617188	-290.4500732421876	986.9034423828127	-1364.401489257813	-189.3931274414063	944.2151489257815	-1360.941040039063	-313.1532897949219	1541.333129882813	-877.101257324219	-372.8302917480469	1335.674438476563	-777.8315429687502	-324.3693237304688	1322.088134765625	-780.4119873046877	-349.2808532714844	1270.66259765625	-764.4178466796876	-343.3941955566407	1225.482666015625	-757.4439086914064	-370.9265136718751	1200.268188476563	-840.3928833007815	-198.1265563964844	1009.330261230469	-819.286315917969	-253.5849151611329	984.011169433594	-772.6104736328127	-149.6331787109375	952.9585571289065	-797.6668090820315	-257.4736022949219	1057.018798828125	-1140.499877929688	-260.2179260253907	1053.866455078125	-912.744812011719	-439.1168518066407	1126.102783203125	-1027.15625	-453.8970642089845	1099.84716796875	-1054.041870117188	-455.1401367187501	1099.755615234375	-999.5545654296877	-362.3078308105469	846.352478027344	-1201.950439453125	-323.4884033203126	770.919128417969	-1192.238647460938	-276.1346740722657	776.8738403320315	-1182.415161132813	-348.8957214355469	717.4064941406251	-1182.6669921875	-325.9527587890626	537.7595825195314	-1159.435913085938	-327.0538635253907	522.5897827148439	-1038.93994140625	-303.0928955078126	346.9464416503907	-1094.204711914063	-346.6495056152344	302.3843383789063	-1159.420654296875	-310.8007507324219	298.7409362792969	-1129.824829101563	-317.6669006347657	222.8278045654297	-1094.887573242188	-374.3932189941407	129.1613311767578	-1134.22314453125	-342.6240844726563	136.6790466308594	-1050.31982421875	-442.106414794922	112.5517959594727	-1096.95263671875	-238.7016296386719	64.22257232666017	-1051.341186523438	-227.0185089111329	57.25960159301759	-1095.1884765625	-269.6210937500001	40.84236145019532	-1152.676879882813	-354.6628112792969	789.4336547851565	-829.0390625000002	-308.6474609375001	743.5332031250001	-815.846130371094	-276.4663085937501	750.8067016601564	-815.0476074218752	-319.2743225097657	659.6778564453126	-827.4136962890627	-309.3445739746094	545.6053466796876	-817.1614990234377	-268.4867553710938	516.2341308593751	-923.4918212890627	-329.5039062500001	377.6759948730469	-818.1606445312502	-434.8008117675782	336.8685302734376	-823.7611083984377	-393.4360351562501	317.8351135253907	-814.8560180664065	-384.7118530273439	263.5733337402344	-840.0657348632815	-483.1044006347657	176.0893249511719	-840.802429199219	-434.3252563476564	181.1014556884766	-910.6286621093752	-539.9601440429689	157.1102294921875	-905.3067016601565	-337.7715148925782	81.97947692871095	-871.745788574219	-345.0460510253907	83.67107391357423	-820.3416748046877	-401.5989685058595	81.11929321289064	-781.7823486328127	-4216.680664062501	853.0339965820315	-3944.694335937501	nan	nan	nan	nan	nan	nan	
4	0.015	-212.5338592529297	1778.946533203125	-1044.880615234375	-389.2323608398439	1698.48583984375	-1108.707763671875	-359.5733337402344	1703.754150390625	-958.2979736328127	-418.1733398437501	1556.324951171875	-1044.22802734375	-437.427703857422	1238.559814453125	-1027.966918945313	-259.8530273437501	1493.5322265625	-1054.933837890625	-350.7164001464844	1537.610961914063	-1224.107177734375	-382.6877441406251	1346.582885742188	-1311.078247070313	-344.6000061035157	1316.638793945313	-1306.964599609375	-388.4777221679689	1279.488403320313	-1329.1171875	-390.0082397460939	1230.556884765625	-1335.183959960938	-396.3865966796876	1192.899780273438	-1256.267333984375	-228.1631164550782	1001.195251464844	-1326.70458984375	-289.8561096191407	987.144226074219	-1366.58154296875	-189.2264862060547	944.2576904296877	-1363.114013671875	-312.8870544433594	1541.393920898438	-877.9338989257815	-372.5029296875001	1335.677734375	-778.5686035156252	-324.1258239746094	1322.123779296875	-781.176696777344	-349.0221557617188	1270.701293945313	-765.1558837890626	-342.8479309082032	1225.374755859375	-758.2356567382814	-370.7169494628907	1200.32275390625	-841.2285156250002	-198.0917510986329	1009.247436523438	-819.8003540039065	-253.4744873046876	984.1972656250002	-773.0881958007815	-149.289306640625	952.9470825195315	-798.3603515625002	-257.3008422851563	1056.975463867188	-1141.181396484375	-260.2571411132813	1053.91357421875	-913.2700805664065	-438.990936279297	1126.082885742188	-1027.783325195313	-453.7174377441407	1099.870849609375	-1054.736450195313	-459.6675415039064	1100.170166015625	-1001.380798339844	-361.6738281250001	846.1865844726565	-1201.732543945313	-323.2712097167969	770.8397216796877	-1192.68701171875	-275.9482421875001	776.7822875976565	-1182.759765625	-348.6519165039063	717.2854614257814	-1183.095825195313	-325.7208251953126	537.6514892578126	-1159.768676757813	-326.8923034667969	522.5903320312501	-1039.309326171875	-303.0161743164063	346.9039306640626	-1094.342163085938	-346.4655456542969	302.3265380859376	-1159.51611328125	-310.6100158691407	298.6752624511719	-1129.959594726563	-317.6648864746094	222.7541656494141	-1094.966918945313	-374.4045410156251	129.1347351074219	-1134.26708984375	-342.6469726562501	136.6767272949219	-1050.307983398438	-442.1111755371095	112.5599136352539	-1096.998901367188	-238.7048645019532	64.21397399902345	-1051.379638671875	-227.0184783935547	57.25955200195314	-1095.1884765625	-269.6502075195313	40.8541488647461	-1152.66455078125	-354.4696655273438	789.3845825195315	-829.5456542968752	-308.5030822753907	743.6545410156251	-816.2780761718752	-276.2627258300782	750.8340454101564	-815.4236450195315	-319.0655822753907	659.6779174804689	-827.7808837890627	-309.0564880371094	545.7482910156251	-817.4615478515627	-268.1347961425782	516.2662353515626	-923.8675537109377	-329.2200622558594	377.7866516113282	-818.4019165039065	-434.4946594238282	337.0190429687501	-823.8440551757815	-393.1539001464845	318.0394897460938	-814.9500732421877	-384.4836730957032	263.6734924316407	-840.1478271484377	-482.9444885253907	176.251953125	-840.7658691406252	-434.1842651367189	181.2618865966797	-910.5866699218752	-539.8400268554689	157.3384094238282	-905.171325683594	-337.7273254394532	81.98618316650392	-871.7431640625002	-345.0040283203126	83.66548156738283	-820.260925292969	-401.5419921875001	81.13405609130861	-781.792663574219	-4216.739257812501	853.030212402344	-3944.835205078126	nan	nan	nan	nan	nan	nan	
